<svg id="Capa_6" data-name="Capa 6" xmlns="http://www.w3.org/2000/svg" viewBox="0 0 214.83 76.33"><defs><style>.cls-1{fill:#242654;}</style></defs><path class="cls-1" d="M219,397.2c0,3.6-1,6.4-3,8.42a12.36,12.36,0,0,1-16.19,0c-2-2-3-4.82-3-8.42v-8.52q0-5.39,3-8.43a10.82,10.82,0,0,1,8.07-3.06,11,11,0,0,1,8.12,3.06c2,2,3.05,4.84,3.05,8.43Zm-5.9-8.59a8,8,0,0,0-1.35-5,4.72,4.72,0,0,0-3.92-1.7,4.61,4.61,0,0,0-3.88,1.69,8.19,8.19,0,0,0-1.3,5.05v8.59a8.29,8.29,0,0,0,1.31,5.1,4.58,4.58,0,0,0,3.89,1.7,4.66,4.66,0,0,0,3.92-1.7,8.16,8.16,0,0,0,1.33-5.1Z" transform="translate(-196.75 -375.45)"/><path class="cls-1" d="M240.78,397.41a15,15,0,0,1-1.95,8.19,6.3,6.3,0,0,1-5.67,3,5.24,5.24,0,0,1-2.86-.76,6.38,6.38,0,0,1-2.08-2.22l-.4,2.54h-5.06V375.45h5.9V387.5a6,6,0,0,1,1.93-1.81,5.09,5.09,0,0,1,2.54-.63,6.24,6.24,0,0,1,5.7,3.24,16.67,16.67,0,0,1,1.95,8.67Zm-5.92-.44a16.22,16.22,0,0,0-.7-5.33,2.54,2.54,0,0,0-2.54-1.91,3,3,0,0,0-1.77.52,3.65,3.65,0,0,0-1.19,1.47v10.56a3,3,0,0,0,1.18,1.29,3.48,3.48,0,0,0,1.8.43,2.5,2.5,0,0,0,2.54-1.68,13.74,13.74,0,0,0,.68-4.91Z" transform="translate(-196.75 -375.45)"/><path class="cls-1" d="M254,402.28a2.26,2.26,0,0,0-.78-1.72,12.53,12.53,0,0,0-3-1.74A15.89,15.89,0,0,1,245,395.9a5.43,5.43,0,0,1-1.74-4.16,6,6,0,0,1,2.21-4.72,8.57,8.57,0,0,1,5.87-2,8.85,8.85,0,0,1,6.1,2,6.24,6.24,0,0,1,2.17,5.11l0,.13H253.9a3.84,3.84,0,0,0-.63-2.3,2.21,2.21,0,0,0-1.91-.87,2.39,2.39,0,0,0-1.73.67,2.18,2.18,0,0,0-.71,1.64,2.08,2.08,0,0,0,.7,1.63,14.69,14.69,0,0,0,3,1.71,14.52,14.52,0,0,1,5.34,2.91,5.7,5.7,0,0,1,1.76,4.33,5.84,5.84,0,0,1-2.32,4.75,9.56,9.56,0,0,1-6.12,1.84,8.57,8.57,0,0,1-6.28-2.26,6.69,6.69,0,0,1-2.21-5.15l.07-.12h5.37a3.69,3.69,0,0,0,.88,2.65,3.19,3.19,0,0,0,2.31.81,2.72,2.72,0,0,0,1.92-.62A2.15,2.15,0,0,0,254,402.28Z" transform="translate(-196.75 -375.45)"/><path class="cls-1" d="M271.49,408.64a8.41,8.41,0,0,1-7-3.1,12.46,12.46,0,0,1-2.47-8v-.86a13.75,13.75,0,0,1,2.38-8.38,7.84,7.84,0,0,1,6.71-3.24,7.33,7.33,0,0,1,6.15,2.76,11.83,11.83,0,0,1,2.14,7.47v3.23H268a7.94,7.94,0,0,0,1.14,4,3.44,3.44,0,0,0,3.08,1.49,9,9,0,0,0,2.95-.41,11.76,11.76,0,0,0,2.55-1.29l1.53,3.7a10,10,0,0,1-3.29,1.87A12.85,12.85,0,0,1,271.49,408.64Zm-.35-18.94a2.38,2.38,0,0,0-2.22,1.32,9,9,0,0,0-.91,3.6h5.63v-.53a7.43,7.43,0,0,0-.58-3.23A2,2,0,0,0,271.14,389.7Z" transform="translate(-196.75 -375.45)"/><path class="cls-1" d="M293.06,390.61l-2-.07a2.57,2.57,0,0,0-1.65.53,3.35,3.35,0,0,0-1,1.47V408.2h-5.9V385.48H288l.23,3.22A7,7,0,0,1,289.9,386a3.34,3.34,0,0,1,3.07-.88l.7.18Z" transform="translate(-196.75 -375.45)"/><path class="cls-1" d="M303.58,399.8l.27,1.73H304l.32-1.73,2.77-14.32h6.19l-6.46,22.72H301l-6.48-22.72h6.23Z" transform="translate(-196.75 -375.45)"/><path class="cls-1" d="M326.57,408.2a9.57,9.57,0,0,1-.56-1.64,13,13,0,0,1-.33-1.8,8,8,0,0,1-2,2.79,4.36,4.36,0,0,1-3,1.09,6.17,6.17,0,0,1-4.78-1.81,7.12,7.12,0,0,1-1.67-5,6.32,6.32,0,0,1,2.2-5.15q2.19-1.85,6.56-1.84h2.58V393a4.55,4.55,0,0,0-.63-2.61,2.12,2.12,0,0,0-1.87-.92,2,2,0,0,0-1.66.74,3.37,3.37,0,0,0-.56,2.1l-5.72,0,0-.13a6.05,6.05,0,0,1,2.21-5,9,9,0,0,1,6.15-2.06,8.26,8.26,0,0,1,5.82,2.06A7.62,7.62,0,0,1,331.5,393v9.32a19.51,19.51,0,0,0,.23,3,17.5,17.5,0,0,0,.72,2.85Zm-4.35-3.94a3.35,3.35,0,0,0,2.1-.73,3.59,3.59,0,0,0,1.26-1.75v-3.57H323a2.49,2.49,0,0,0-2.18,1,4.18,4.18,0,0,0-.68,2.44,3,3,0,0,0,.57,1.91A1.82,1.82,0,0,0,322.22,404.26Z" transform="translate(-196.75 -375.45)"/><path class="cls-1" d="M342.25,379.84v5.64h3.09v4.22h-3.09v11.57a3.75,3.75,0,0,0,.42,2.06,1.32,1.32,0,0,0,1.16.61,4.25,4.25,0,0,0,.69-.05l.67-.18.46,4.37a11,11,0,0,1-1.6.43,10.12,10.12,0,0,1-1.74.13,5.57,5.57,0,0,1-4.44-1.76q-1.55-1.77-1.54-5.56V389.7h-2.75v-4.22h2.75v-5.64Z" transform="translate(-196.75 -375.45)"/><path class="cls-1" d="M347.92,396.63a13.43,13.43,0,0,1,2.45-8.34,8.94,8.94,0,0,1,13.76,0,13.32,13.32,0,0,1,2.48,8.34v.49a13.28,13.28,0,0,1-2.47,8.32,9,9,0,0,1-13.76,0,13.26,13.26,0,0,1-2.46-8.33Zm5.9.49a13.17,13.17,0,0,0,.79,5,2.8,2.8,0,0,0,5.28,0,13.15,13.15,0,0,0,.8-5v-.49a13.27,13.27,0,0,0-.8-5,2.74,2.74,0,0,0-2.65-1.9,2.7,2.7,0,0,0-2.63,1.92,13.21,13.21,0,0,0-.79,5Z" transform="translate(-196.75 -375.45)"/><path class="cls-1" d="M380.4,390.61l-2-.07a2.56,2.56,0,0,0-1.64.53,3.35,3.35,0,0,0-1,1.47V408.2h-5.9V385.48h5.52l.23,3.22a7,7,0,0,1,1.67-2.68,3.32,3.32,0,0,1,2.34-1,3.43,3.43,0,0,1,.74.08l.69.18Z" transform="translate(-196.75 -375.45)"/><path class="cls-1" d="M389.39,380h-5.92v-4.51h5.92Zm0,28.24h-5.92V385.48h5.92Z" transform="translate(-196.75 -375.45)"/><path class="cls-1" d="M392.89,396.63a13.43,13.43,0,0,1,2.45-8.34,8.94,8.94,0,0,1,13.76,0,13.32,13.32,0,0,1,2.48,8.34v.49a13.21,13.21,0,0,1-2.47,8.32,9,9,0,0,1-13.76,0,13.26,13.26,0,0,1-2.46-8.33Zm5.9.49a13.36,13.36,0,0,0,.79,5,2.74,2.74,0,0,0,2.68,1.86,2.69,2.69,0,0,0,2.6-1.86,13.15,13.15,0,0,0,.8-5v-.49a13.27,13.27,0,0,0-.8-5,2.78,2.78,0,0,0-5.28,0,13.41,13.41,0,0,0-.79,5Z" transform="translate(-196.75 -375.45)"/><path class="cls-1" d="M196.75,439.2a17.7,17.7,0,0,1,2.15-9.31,6.76,6.76,0,0,1,6.09-3.53,5.23,5.23,0,0,1,2.66.7,7,7,0,0,1,2.11,2V416h6.38v35.3h-5.45l-.48-2.76a7.17,7.17,0,0,1-2.28,2.41,5.51,5.51,0,0,1-3,.83,6.81,6.81,0,0,1-6-3.32,15.89,15.89,0,0,1-2.15-8.79Zm6.34.47a13.59,13.59,0,0,0,.81,5.22,2.77,2.77,0,0,0,2.69,1.89,3.55,3.55,0,0,0,1.85-.49,3.7,3.7,0,0,0,1.32-1.44V433.6a4.4,4.4,0,0,0-1.33-1.62,3,3,0,0,0-1.81-.59,2.84,2.84,0,0,0-2.7,2.15,15.85,15.85,0,0,0-.83,5.66Z" transform="translate(-196.75 -375.45)"/><path class="cls-1" d="M229.79,451.78a9.06,9.06,0,0,1-7.51-3.35,13.4,13.4,0,0,1-2.67-8.62v-.93a14.78,14.78,0,0,1,2.57-9,8.44,8.44,0,0,1,7.23-3.49,7.9,7.9,0,0,1,6.63,3c1.54,2,2.31,4.66,2.31,8.05v3.49H226a8.7,8.7,0,0,0,1.23,4.32,3.73,3.73,0,0,0,3.32,1.61,10,10,0,0,0,3.18-.44,13.41,13.41,0,0,0,2.75-1.39l1.65,4a10.42,10.42,0,0,1-3.54,2A13.69,13.69,0,0,1,229.79,451.78Zm-.38-20.42a2.57,2.57,0,0,0-2.39,1.42,9.7,9.7,0,0,0-1,3.88h6.06v-.57a8,8,0,0,0-.62-3.48A2.15,2.15,0,0,0,229.41,431.36Z" transform="translate(-196.75 -375.45)"/><path class="cls-1" d="M266.82,442.75a4.55,4.55,0,0,0-1-3.11,9.8,9.8,0,0,0-3.61-2.23,23.26,23.26,0,0,1-7.62-4.05A8,8,0,0,1,252,427a8.34,8.34,0,0,1,2.92-6.6,12.22,12.22,0,0,1,15.16.17,9.2,9.2,0,0,1,2.83,7.29l-.05.13h-6.2a5.81,5.81,0,0,0-1.14-3.88,4.09,4.09,0,0,0-3.27-1.32,3.51,3.51,0,0,0-2.85,1.21,4.52,4.52,0,0,0-1,3,3.64,3.64,0,0,0,1.15,2.76,15.3,15.3,0,0,0,4,2.38,18.58,18.58,0,0,1,7.24,4,8.78,8.78,0,0,1,2.45,6.52,8.27,8.27,0,0,1-2.87,6.66,11.48,11.48,0,0,1-7.63,2.42,12.54,12.54,0,0,1-8-2.62q-3.33-2.61-3.22-8l.05-.14h6.22c0,2.07.42,3.56,1.26,4.46a4.78,4.78,0,0,0,3.7,1.36,4,4,0,0,0,3.09-1.13A4.3,4.3,0,0,0,266.82,442.75Z" transform="translate(-196.75 -375.45)"/><path class="cls-1" d="M276.14,438.83a14.44,14.44,0,0,1,2.64-9,9.65,9.65,0,0,1,14.84,0,14.32,14.32,0,0,1,2.67,9v.52a14.33,14.33,0,0,1-2.66,9,9.71,9.71,0,0,1-14.84,0,14.36,14.36,0,0,1-2.65-9Zm6.36.52a14.45,14.45,0,0,0,.85,5.44,3,3,0,0,0,2.89,2,2.9,2.9,0,0,0,2.8-2,14,14,0,0,0,.86-5.44v-.52a14.1,14.1,0,0,0-.86-5.42,3,3,0,0,0-5.69,0,14.57,14.57,0,0,0-.85,5.41Z" transform="translate(-196.75 -375.45)"/><path class="cls-1" d="M301.2,451.3V431.36h-3.06v-4.55h3.06v-2.76a8.71,8.71,0,0,1,2.14-6.31,8,8,0,0,1,6-2.22,8.25,8.25,0,0,1,1.49.13c.5.08,1.07.2,1.72.35l-.49,4.79-.91-.18a7.57,7.57,0,0,0-1-.06,2.22,2.22,0,0,0-1.92.91,4.39,4.39,0,0,0-.66,2.59v2.76h3.94v4.55h-3.94V451.3Z" transform="translate(-196.75 -375.45)"/><path class="cls-1" d="M321.66,420.73v6.08H325v4.55h-3.33v12.47a4.07,4.07,0,0,0,.45,2.22,1.43,1.43,0,0,0,1.25.66,3.73,3.73,0,0,0,.74-.06,7.31,7.31,0,0,0,.73-.19l.5,4.71a11.87,11.87,0,0,1-1.74.46,10.46,10.46,0,0,1-1.86.15,6,6,0,0,1-4.79-1.9q-1.67-1.9-1.66-6V431.36h-3v-4.55h3v-6.08Z" transform="translate(-196.75 -375.45)"/><path class="cls-1" d="M346.76,440.46h.13l2.18-13.65h6.15l-5.16,24.49h-5.31l-3.56-12.92h-.13L337.5,451.3h-5.34L327,426.81h6.13l2.22,13.72h.14L339,426.81h4.14Z" transform="translate(-196.75 -375.45)"/><path class="cls-1" d="M370.23,451.3a11,11,0,0,1-.6-1.76,14,14,0,0,1-.35-2,8.64,8.64,0,0,1-2.14,3,4.7,4.7,0,0,1-3.25,1.18,6.63,6.63,0,0,1-5.15-2,7.63,7.63,0,0,1-1.8-5.37,6.84,6.84,0,0,1,2.37-5.56c1.58-1.32,3.93-2,7.07-2h2.78v-2a5,5,0,0,0-.67-2.82,2.32,2.32,0,0,0-2-1,2.13,2.13,0,0,0-1.79.79,3.7,3.7,0,0,0-.61,2.27l-6.15,0-.05-.13a6.51,6.51,0,0,1,2.38-5.39,9.63,9.63,0,0,1,6.63-2.22,8.87,8.87,0,0,1,6.27,2.22,8.2,8.2,0,0,1,2.4,6.34V445a20.05,20.05,0,0,0,.25,3.26,18.15,18.15,0,0,0,.77,3.07Zm-4.69-4.25a3.59,3.59,0,0,0,2.27-.78,3.92,3.92,0,0,0,1.35-1.89v-3.85h-2.78a2.67,2.67,0,0,0-2.34,1,4.46,4.46,0,0,0-.74,2.63,3.34,3.34,0,0,0,.61,2.06A2,2,0,0,0,365.54,447.05Z" transform="translate(-196.75 -375.45)"/><path class="cls-1" d="M391.07,432.34l-2.17-.07a2.77,2.77,0,0,0-1.78.57,3.5,3.5,0,0,0-1.09,1.58V451.3h-6.36V426.81h5.95l.25,3.47a7.61,7.61,0,0,1,1.8-2.89,3.6,3.6,0,0,1,2.52-1,3.84,3.84,0,0,1,.79.08c.24.05.49.12.75.19Z" transform="translate(-196.75 -375.45)"/><path class="cls-1" d="M403,451.78a9.08,9.08,0,0,1-7.52-3.35,13.4,13.4,0,0,1-2.67-8.62v-.93a14.84,14.84,0,0,1,2.57-9,8.44,8.44,0,0,1,7.23-3.49,7.9,7.9,0,0,1,6.63,3c1.54,2,2.31,4.66,2.31,8.05v3.49H399.22a8.6,8.6,0,0,0,1.24,4.32,3.7,3.7,0,0,0,3.31,1.61,10,10,0,0,0,3.18-.44A13.41,13.41,0,0,0,409.7,445l1.65,4a10.42,10.42,0,0,1-3.54,2A13.64,13.64,0,0,1,403,451.78Zm-.39-20.42a2.57,2.57,0,0,0-2.39,1.42,9.7,9.7,0,0,0-1,3.88h6.06v-.57a7.85,7.85,0,0,0-.62-3.48A2.14,2.14,0,0,0,402.64,431.36Z" transform="translate(-196.75 -375.45)"/></svg>