<svg id="Capa_5" data-name="Capa 5" xmlns="http://www.w3.org/2000/svg" viewBox="0 0 310.65 79.53"><defs><style>.cls-1{fill:#1a1e31;}.cls-2{fill:#fff;}</style></defs><path class="cls-1" d="M166.87,516.6c0,3.6-1,6.4-3.05,8.42a12.35,12.35,0,0,1-16.18,0c-2-2-3-4.82-3-8.42v-8.53q0-5.37,3-8.43a10.82,10.82,0,0,1,8.07-3.05,11,11,0,0,1,8.11,3.05q3.06,3.06,3.06,8.43ZM161,508a8,8,0,0,0-1.36-5,4.7,4.7,0,0,0-3.91-1.7,4.61,4.61,0,0,0-3.89,1.69,8.26,8.26,0,0,0-1.3,5.05v8.59a8.29,8.29,0,0,0,1.31,5.1,5.34,5.34,0,0,0,7.81,0,8.15,8.15,0,0,0,1.34-5.1Z" transform="translate(-48.8 -493.25)"/><path class="cls-1" d="M188.64,516.81A15.13,15.13,0,0,1,186.7,525a6.32,6.32,0,0,1-5.68,3,5.21,5.21,0,0,1-2.86-.77,6.44,6.44,0,0,1-2.08-2.21l-.39,2.54h-5.06V494.85h5.9v12a5.81,5.81,0,0,1,1.93-1.81,5.06,5.06,0,0,1,2.54-.63,6.26,6.26,0,0,1,5.7,3.24,16.77,16.77,0,0,1,1.94,8.67Zm-5.92-.44A16.37,16.37,0,0,0,182,511a2.56,2.56,0,0,0-2.54-1.91,3,3,0,0,0-1.78.53,3.63,3.63,0,0,0-1.18,1.47v10.56A3.07,3.07,0,0,0,177.7,523a3.49,3.49,0,0,0,1.81.43,2.51,2.51,0,0,0,2.54-1.68,13.81,13.81,0,0,0,.67-4.91Z" transform="translate(-48.8 -493.25)"/><path class="cls-1" d="M201.89,521.68a2.24,2.24,0,0,0-.78-1.72,12.82,12.82,0,0,0-3-1.75,15.89,15.89,0,0,1-5.21-2.91,5.43,5.43,0,0,1-1.74-4.16,6.09,6.09,0,0,1,2.22-4.73,8.53,8.53,0,0,1,5.86-2,8.85,8.85,0,0,1,6.1,2,6.24,6.24,0,0,1,2.18,5.11l-.05.13h-5.71a3.82,3.82,0,0,0-.63-2.3,2.19,2.19,0,0,0-1.91-.87,2.41,2.41,0,0,0-1.73.67,2.17,2.17,0,0,0-.7,1.64,2.07,2.07,0,0,0,.69,1.62,13.79,13.79,0,0,0,3,1.71,14.79,14.79,0,0,1,5.35,2.91,5.71,5.71,0,0,1,1.75,4.34,5.78,5.78,0,0,1-2.32,4.74,9.56,9.56,0,0,1-6.12,1.85,8.54,8.54,0,0,1-6.28-2.27,6.65,6.65,0,0,1-2.2-5.14l.06-.13h5.38a3.67,3.67,0,0,0,.88,2.66,3.19,3.19,0,0,0,2.31.81,2.72,2.72,0,0,0,1.92-.62A2.18,2.18,0,0,0,201.89,521.68Z" transform="translate(-48.8 -493.25)"/><path class="cls-1" d="M219.36,528a8.4,8.4,0,0,1-7-3.11,12.37,12.37,0,0,1-2.48-8v-.86a13.72,13.72,0,0,1,2.38-8.37,7.85,7.85,0,0,1,6.71-3.24,7.33,7.33,0,0,1,6.15,2.75,11.88,11.88,0,0,1,2.14,7.48v3.23H215.83a7.93,7.93,0,0,0,1.15,4,3.43,3.43,0,0,0,3.07,1.49A8.93,8.93,0,0,0,223,523a11.76,11.76,0,0,0,2.55-1.29l1.53,3.7a9.89,9.89,0,0,1-3.28,1.87A12.94,12.94,0,0,1,219.36,528ZM219,509.1a2.37,2.37,0,0,0-2.21,1.31,9.07,9.07,0,0,0-.92,3.61h5.63v-.53a7.26,7.26,0,0,0-.58-3.23A2,2,0,0,0,219,509.1Z" transform="translate(-48.8 -493.25)"/><path class="cls-1" d="M240.92,510l-2-.06a2.56,2.56,0,0,0-1.64.53,3.35,3.35,0,0,0-1,1.47V527.6h-5.9V504.88h5.52l.23,3.21a6.91,6.91,0,0,1,1.67-2.67,3.32,3.32,0,0,1,2.34-1,3.43,3.43,0,0,1,.74.08c.22,0,.45.1.69.17Z" transform="translate(-48.8 -493.25)"/><path class="cls-1" d="M251.44,519.2l.27,1.72h.13l.31-1.72,2.78-14.32h6.19l-6.47,22.72h-5.77l-6.49-22.72h6.24Z" transform="translate(-48.8 -493.25)"/><path class="cls-1" d="M274.43,527.6a10.51,10.51,0,0,1-.56-1.64,15.4,15.4,0,0,1-.32-1.8,8.16,8.16,0,0,1-2,2.79,4.34,4.34,0,0,1-3,1.09,6.15,6.15,0,0,1-4.78-1.82,7.08,7.08,0,0,1-1.66-5,6.38,6.38,0,0,1,2.19-5.16q2.19-1.83,6.56-1.83h2.58v-1.89a4.59,4.59,0,0,0-.63-2.62,2.11,2.11,0,0,0-1.87-.91,2,2,0,0,0-1.65.73,3.37,3.37,0,0,0-.57,2.1l-5.71,0,0-.12a6,6,0,0,1,2.2-5,9,9,0,0,1,6.15-2.06,8.25,8.25,0,0,1,5.82,2.06,7.62,7.62,0,0,1,2.22,5.88v9.32a18.21,18.21,0,0,0,.24,3,17.32,17.32,0,0,0,.71,2.86Zm-4.35-4a3.3,3.3,0,0,0,2.1-.72,3.57,3.57,0,0,0,1.26-1.76v-3.56h-2.58a2.47,2.47,0,0,0-2.17,1A4.09,4.09,0,0,0,268,521a3,3,0,0,0,.56,1.91A1.81,1.81,0,0,0,270.08,523.65Z" transform="translate(-48.8 -493.25)"/><path class="cls-1" d="M290.11,499.23v5.65h3.09v4.22h-3.09v11.57a3.77,3.77,0,0,0,.42,2.06,1.35,1.35,0,0,0,1.16.61,4.25,4.25,0,0,0,.69-.05c.18,0,.41-.1.67-.18l.47,4.36a9.92,9.92,0,0,1-1.61.43,9.11,9.11,0,0,1-1.73.14,5.6,5.6,0,0,1-4.44-1.76c-1-1.18-1.55-3-1.55-5.57V509.1h-2.75v-4.22h2.75v-5.65Z" transform="translate(-48.8 -493.25)"/><path class="cls-1" d="M295.78,516a13.46,13.46,0,0,1,2.45-8.35,9,9,0,0,1,13.76,0,13.35,13.35,0,0,1,2.48,8.35v.48a13.24,13.24,0,0,1-2.47,8.33,9,9,0,0,1-13.76,0,13.29,13.29,0,0,1-2.46-8.34Zm5.9.48a13.29,13.29,0,0,0,.79,5,2.74,2.74,0,0,0,2.68,1.87,2.69,2.69,0,0,0,2.6-1.87,13.08,13.08,0,0,0,.8-5V516a13.27,13.27,0,0,0-.8-5,2.78,2.78,0,0,0-5.28,0,13.5,13.5,0,0,0-.79,5Z" transform="translate(-48.8 -493.25)"/><path class="cls-1" d="M328.26,510l-2-.06a2.57,2.57,0,0,0-1.65.53,3.35,3.35,0,0,0-1,1.47V527.6h-5.9V504.88h5.52l.24,3.21a7,7,0,0,1,1.66-2.67,3.32,3.32,0,0,1,2.34-1,3.36,3.36,0,0,1,.74.08c.22,0,.46.1.69.17Z" transform="translate(-48.8 -493.25)"/><path class="cls-1" d="M337.25,499.36h-5.92v-4.51h5.92Zm0,28.24h-5.92V504.88h5.92Z" transform="translate(-48.8 -493.25)"/><path class="cls-1" d="M340.76,516a13.46,13.46,0,0,1,2.44-8.35,9,9,0,0,1,13.77,0,13.34,13.34,0,0,1,2.47,8.35v.48a13.3,13.3,0,0,1-2.46,8.33,9,9,0,0,1-13.77,0,13.35,13.35,0,0,1-2.45-8.34Zm5.9.48a13.31,13.31,0,0,0,.78,5,2.74,2.74,0,0,0,2.68,1.87,2.7,2.7,0,0,0,2.61-1.87,13.1,13.1,0,0,0,.79-5V516a13.29,13.29,0,0,0-.79-5,2.79,2.79,0,0,0-5.29,0,13.52,13.52,0,0,0-.78,5Z" transform="translate(-48.8 -493.25)"/><path class="cls-1" d="M144.61,558.59a17.73,17.73,0,0,1,2.15-9.3,6.77,6.77,0,0,1,6.09-3.53,5.11,5.11,0,0,1,2.66.7,7.1,7.1,0,0,1,2.12,2V535.39H164V570.7h-5.46l-.47-2.76a7.19,7.19,0,0,1-2.29,2.41,5.49,5.49,0,0,1-3,.83,6.82,6.82,0,0,1-6-3.32,16,16,0,0,1-2.15-8.79Zm6.34.48a13.53,13.53,0,0,0,.81,5.21,2.78,2.78,0,0,0,2.7,1.89,3.51,3.51,0,0,0,1.84-.48,3.79,3.79,0,0,0,1.33-1.44V553a4.46,4.46,0,0,0-1.34-1.63,3,3,0,0,0-1.81-.59,2.83,2.83,0,0,0-2.69,2.15,15.86,15.86,0,0,0-.84,5.66Z" transform="translate(-48.8 -493.25)"/><path class="cls-1" d="M177.66,571.18a9.08,9.08,0,0,1-7.52-3.35,13.43,13.43,0,0,1-2.67-8.63v-.93a14.88,14.88,0,0,1,2.57-9,8.46,8.46,0,0,1,7.23-3.48,7.92,7.92,0,0,1,6.63,3,12.81,12.81,0,0,1,2.31,8.06v3.49H173.85a8.6,8.6,0,0,0,1.24,4.32,3.7,3.7,0,0,0,3.31,1.61,10,10,0,0,0,3.18-.44,12.77,12.77,0,0,0,2.75-1.4l1.65,4a10.42,10.42,0,0,1-3.54,2A13.87,13.87,0,0,1,177.66,571.18Zm-.39-20.42a2.55,2.55,0,0,0-2.39,1.42,9.66,9.66,0,0,0-1,3.88H180v-.57a7.85,7.85,0,0,0-.62-3.48A2.14,2.14,0,0,0,177.27,550.76Z" transform="translate(-48.8 -493.25)"/><path class="cls-1" d="M214.68,562.15a4.57,4.57,0,0,0-1-3.12,10.16,10.16,0,0,0-3.61-2.23,23.13,23.13,0,0,1-7.63-4,8,8,0,0,1-2.56-6.34,8.32,8.32,0,0,1,2.92-6.59A12.24,12.24,0,0,1,218,540a9.23,9.23,0,0,1,2.82,7.29l0,.13h-6.2a5.74,5.74,0,0,0-1.15-3.88,4.09,4.09,0,0,0-3.27-1.32,3.51,3.51,0,0,0-2.85,1.21,4.51,4.51,0,0,0-1,3,3.62,3.62,0,0,0,1.16,2.76,15.59,15.59,0,0,0,4,2.38,18.48,18.48,0,0,1,7.23,4,8.75,8.75,0,0,1,2.46,6.52,8.22,8.22,0,0,1-2.88,6.65,11.43,11.43,0,0,1-7.63,2.43,12.6,12.6,0,0,1-8-2.62q-3.33-2.61-3.21-7.95l0-.14h6.23c0,2.07.42,3.55,1.25,4.46a4.78,4.78,0,0,0,3.7,1.36,4,4,0,0,0,3.09-1.13A4.3,4.3,0,0,0,214.68,562.15Z" transform="translate(-48.8 -493.25)"/><path class="cls-1" d="M224,558.23a14.55,14.55,0,0,1,2.63-9,9.67,9.67,0,0,1,14.84,0,14.37,14.37,0,0,1,2.67,9v.52a14.3,14.3,0,0,1-2.66,9,9.69,9.69,0,0,1-14.83,0,14.32,14.32,0,0,1-2.65-9Zm6.36.52a14.16,14.16,0,0,0,.85,5.43,3,3,0,0,0,5.69,0,14.14,14.14,0,0,0,.86-5.43v-.52a14.3,14.3,0,0,0-.86-5.42,3,3,0,0,0-5.69,0,14.33,14.33,0,0,0-.85,5.41Z" transform="translate(-48.8 -493.25)"/><path class="cls-1" d="M249.06,570.7V550.76H246v-4.55h3.05v-2.76a8.73,8.73,0,0,1,2.14-6.31,8,8,0,0,1,6-2.22,9.48,9.48,0,0,1,1.5.12c.49.09,1.07.2,1.72.35l-.5,4.8L259,540a7.16,7.16,0,0,0-1-.07,2.23,2.23,0,0,0-1.93.92,4.37,4.37,0,0,0-.65,2.59v2.76h3.93v4.55h-3.93V570.7Z" transform="translate(-48.8 -493.25)"/><path class="cls-1" d="M269.52,540.12v6.09h3.33v4.55h-3.33v12.47a4,4,0,0,0,.46,2.22,1.42,1.42,0,0,0,1.24.66,3.92,3.92,0,0,0,.75-.06c.19,0,.43-.1.72-.19l.5,4.7a10.44,10.44,0,0,1-1.73.47,10.57,10.57,0,0,1-1.87.15,6.05,6.05,0,0,1-4.79-1.9c-1.1-1.27-1.66-3.27-1.66-6V550.76h-3v-4.55h3v-6.09Z" transform="translate(-48.8 -493.25)"/><path class="cls-1" d="M294.62,559.86h.14l2.17-13.65h6.16l-5.16,24.49h-5.32l-3.55-12.92h-.14l-3.55,12.92H280l-5.17-24.49H281l2.22,13.72h.13l3.56-13.72h4.14Z" transform="translate(-48.8 -493.25)"/><path class="cls-1" d="M318.09,570.7a11,11,0,0,1-.6-1.76,18.08,18.08,0,0,1-.35-2,8.6,8.6,0,0,1-2.14,3,4.72,4.72,0,0,1-3.24,1.18,6.66,6.66,0,0,1-5.15-2,7.66,7.66,0,0,1-1.8-5.38,6.86,6.86,0,0,1,2.36-5.55q2.37-2,7.08-2H317v-2a5,5,0,0,0-.68-2.82,2.29,2.29,0,0,0-2-1,2.11,2.11,0,0,0-1.79.79,3.62,3.62,0,0,0-.61,2.26l-6.16,0,0-.14a6.53,6.53,0,0,1,2.37-5.38,9.66,9.66,0,0,1,6.63-2.22A8.87,8.87,0,0,1,321,548a8.19,8.19,0,0,1,2.4,6.33v10.05a19.88,19.88,0,0,0,.25,3.26,19.27,19.27,0,0,0,.77,3.08Zm-4.68-4.25a3.52,3.52,0,0,0,2.26-.79,3.87,3.87,0,0,0,1.36-1.89v-3.84h-2.78a2.66,2.66,0,0,0-2.35,1,4.43,4.43,0,0,0-.73,2.62,3.24,3.24,0,0,0,.61,2.06A2,2,0,0,0,313.41,566.45Z" transform="translate(-48.8 -493.25)"/><path class="cls-1" d="M338.94,551.73l-2.17-.06a2.81,2.81,0,0,0-1.78.56,3.6,3.6,0,0,0-1.1,1.59V570.7h-6.36V546.21h6l.25,3.46a7.65,7.65,0,0,1,1.8-2.88,3.58,3.58,0,0,1,2.53-1,3.91,3.91,0,0,1,.79.08,7.33,7.33,0,0,1,.74.19Z" transform="translate(-48.8 -493.25)"/><path class="cls-1" d="M350.89,571.18a9.06,9.06,0,0,1-7.51-3.35,13.44,13.44,0,0,1-2.68-8.63v-.93a14.88,14.88,0,0,1,2.57-9,8.48,8.48,0,0,1,7.23-3.48,7.93,7.93,0,0,1,6.64,3c1.54,2,2.3,4.67,2.3,8.06v3.49H347.09a8.5,8.5,0,0,0,1.23,4.32,3.72,3.72,0,0,0,3.32,1.61,10,10,0,0,0,3.18-.44,13,13,0,0,0,2.75-1.4l1.65,4a10.62,10.62,0,0,1-3.54,2A14,14,0,0,1,350.89,571.18Zm-.39-20.42a2.54,2.54,0,0,0-2.38,1.42,9.81,9.81,0,0,0-1,3.88h6.07v-.57a8,8,0,0,0-.62-3.48A2.16,2.16,0,0,0,350.5,550.76Z" transform="translate(-48.8 -493.25)"/><circle class="cls-1" cx="39.77" cy="39.77" r="39.77"/><path class="cls-2" d="M61.92,533v.17l13.64,5.71v7.24L55,536.06V530l20.56-10v7.22Z" transform="translate(-48.8 -493.25)"/><path class="cls-2" d="M85.86,554.71H78.31l12.13-43.4H98Z" transform="translate(-48.8 -493.25)"/><path class="cls-2" d="M115.15,533v-.16l-13.76-5.74v-7.19l20.73,10v6.12l-20.73,10v-7.19Z" transform="translate(-48.8 -493.25)"/></svg>