<svg id="Capa_7" data-name="Capa 7" xmlns="http://www.w3.org/2000/svg" viewBox="0 0 554.79 472.04"><defs><style>.cls-1{fill:#b25199;opacity:0.11;}.cls-18,.cls-2{fill:#fff;}.cls-3{fill:#525d7f;opacity:0.65;}.cls-12,.cls-19,.cls-4{fill:none;stroke-linecap:round;stroke-miterlimit:10;}.cls-19,.cls-4{stroke:#fff;}.cls-4{stroke-width:10px;opacity:0.04;}.cls-5{fill:#a1ccef;}.cls-6{fill:#fccf9d;}.cls-7,.cls-9{fill:#f49d71;}.cls-10,.cls-8{fill:#e26154;}.cls-8{opacity:0.29;}.cls-9{opacity:0.22;}.cls-11{fill:#432918;}.cls-12{stroke:#432918;}.cls-12,.cls-19{stroke-width:2px;}.cls-13{fill:#1d1d1b;}.cls-14{fill:#f6f6f6;}.cls-15{fill:#be1622;}.cls-16{opacity:0.63;}.cls-17,.cls-19{opacity:0.15;}.cls-18{opacity:0.25;}.cls-20{fill:#43509e;opacity:0.08;}.cls-21{fill:#1e2040;}.cls-22{fill:#14172c;}.cls-23{fill:#ededed;}.cls-24{fill:#dadada;}.cls-25{fill:#364892;}.cls-26{fill:#2a4484;}.cls-27{fill:#2b407a;}.cls-28{fill:#233c6d;}.cls-29{fill:#afb4c8;}.cls-30{fill:#cee9ee;}.cls-31{fill:#bfc4d2;}.cls-32{fill:#fbbb38;}.cls-33{fill:#ffe833;}.cls-34{fill:#f6a22c;}.cls-35{fill:#9fd5d9;}</style></defs><path class="cls-1" d="M548.66,388.14c-19.37,32.69-46.19,58.09-74.86,82.54-6.65,5.67-13.13,10.34-17.81,17.76-4.4,7-8.32,14.32-13,21.15a318.27,318.27,0,0,1-32.28,39.84,326.12,326.12,0,0,1-64.66,52.11H88.74a24.86,24.86,0,0,0-21,11.58A105.16,105.16,0,0,1,48.59,588.2c-16.7-30.76-16.18-66.7-5.36-99.3,4.67-14.09,12.53-29.3,20.41-41.9,1.51-3,3.07-6.11,2.78-9.42-.74-8.52-11.32-12.83-16.42-18.39a126.81,126.81,0,0,1-16.34-21.95c-8.42-14.49-13.41-30.86-13.41-47.67,0-79.22,106-143.43,236.83-143.43,15.76,0,31.55,3.36,47.27,2,16-1.36,31.43-6.54,46.76-11.1,69.75-20.74,170.45-21.57,210.68,51.49A106.58,106.58,0,0,1,573.71,284C579.2,320.32,567,357.18,548.66,388.14Z" transform="translate(-20.25 -184.92)"/><polygon class="cls-2" points="75.81 172.11 66.81 136.11 75.81 100.11 84.81 136.11 75.81 172.11"/><polygon class="cls-2" points="111.81 136.11 75.81 145.11 39.81 136.11 75.81 127.11 111.81 136.11"/><polygon class="cls-2" points="93.81 154.11 71.31 140.61 57.81 118.11 80.31 131.61 93.81 154.11"/><polygon class="cls-2" points="93.81 118.11 80.31 140.61 57.81 154.11 71.31 131.61 93.81 118.11"/><polygon class="cls-2" points="180.82 90.92 175.76 70.67 180.82 50.42 185.88 70.67 180.82 90.92"/><polygon class="cls-2" points="201.07 70.67 180.82 75.74 160.57 70.67 180.82 65.61 201.07 70.67"/><polygon class="cls-2" points="190.95 80.8 178.29 73.21 170.7 60.55 183.35 68.14 190.95 80.8"/><polygon class="cls-2" points="190.95 60.55 183.35 73.21 170.7 80.8 178.29 68.14 190.95 60.55"/><polygon class="cls-2" points="223.66 179.25 218.6 159 223.66 138.75 228.72 159 223.66 179.25"/><polygon class="cls-2" points="243.91 159 223.66 164.06 203.41 159 223.66 153.93 243.91 159"/><polygon class="cls-2" points="233.79 169.12 221.13 161.53 213.54 148.87 226.19 156.46 233.79 169.12"/><polygon class="cls-2" points="233.79 148.87 226.19 161.53 213.54 169.12 221.13 156.46 233.79 148.87"/><polygon class="cls-2" points="118.17 410 113.11 389.75 118.17 369.5 123.23 389.75 118.17 410"/><polygon class="cls-2" points="138.42 389.75 118.17 394.81 97.92 389.75 118.17 384.69 138.42 389.75"/><polygon class="cls-2" points="128.29 399.88 115.64 392.28 108.04 379.63 120.7 387.22 128.29 399.88"/><polygon class="cls-2" points="128.29 379.63 120.7 392.28 108.04 399.88 115.64 387.22 128.29 379.63"/><polygon class="cls-2" points="274.86 393.96 269.8 373.71 274.86 353.46 279.93 373.71 274.86 393.96"/><polygon class="cls-2" points="295.11 373.71 274.86 378.78 254.61 373.71 274.86 368.65 295.11 373.71"/><polygon class="cls-2" points="284.99 383.84 272.33 376.25 264.74 363.59 277.39 371.18 284.99 383.84"/><polygon class="cls-2" points="284.99 363.59 277.39 376.25 264.74 383.84 272.33 371.18 284.99 363.59"/><polygon class="cls-2" points="316.74 116.14 313.42 102.86 316.74 89.59 320.06 102.86 316.74 116.14"/><polygon class="cls-2" points="330.01 102.86 316.74 106.18 303.46 102.86 316.74 99.54 330.01 102.86"/><polygon class="cls-2" points="323.38 109.5 315.08 104.52 310.1 96.22 318.4 101.2 323.38 109.5"/><polygon class="cls-2" points="323.38 96.22 318.4 104.52 310.1 109.5 315.08 101.2 323.38 96.22"/><polygon class="cls-2" points="530.31 131.13 526.99 117.85 530.31 104.58 533.63 117.85 530.31 131.13"/><polygon class="cls-2" points="543.59 117.85 530.31 121.17 517.03 117.85 530.31 114.53 543.59 117.85"/><polygon class="cls-2" points="536.95 124.49 528.65 119.51 523.67 111.21 531.97 116.19 536.95 124.49"/><polygon class="cls-2" points="536.95 111.21 531.97 119.51 523.67 124.49 528.65 116.19 536.95 111.21"/><polygon class="cls-2" points="38.21 346.07 34.89 332.79 38.21 319.52 41.53 332.79 38.21 346.07"/><polygon class="cls-2" points="51.49 332.79 38.21 336.11 24.93 332.79 38.21 329.48 51.49 332.79"/><polygon class="cls-2" points="44.85 339.43 36.55 334.45 31.57 326.16 39.87 331.13 44.85 339.43"/><polygon class="cls-2" points="44.85 326.16 39.87 334.45 31.57 339.43 36.55 331.13 44.85 326.16"/><polygon class="cls-2" points="476.36 91.52 469.75 65.09 476.36 38.67 482.96 65.09 476.36 91.52"/><polygon class="cls-2" points="502.78 65.09 476.36 71.7 449.93 65.09 476.36 58.48 502.78 65.09"/><polygon class="cls-2" points="489.57 78.3 473.05 68.39 463.14 51.88 479.66 61.79 489.57 78.3"/><polygon class="cls-2" points="489.57 51.88 479.66 68.39 463.14 78.3 473.05 61.79 489.57 51.88"/><polygon class="cls-2" points="497.73 201.22 493.39 183.85 497.73 166.48 502.08 183.85 497.73 201.22"/><polygon class="cls-2" points="515.1 183.85 497.73 188.19 480.36 183.85 497.73 179.51 515.1 183.85"/><polygon class="cls-2" points="506.42 192.54 495.56 186.02 489.05 175.17 499.9 181.68 506.42 192.54"/><polygon class="cls-2" points="506.42 175.17 499.9 186.02 489.05 192.54 495.56 181.68 506.42 175.17"/><polygon class="cls-2" points="372.51 54.91 368.17 37.53 372.51 20.17 376.86 37.53 372.51 54.91"/><polygon class="cls-2" points="389.88 37.53 372.51 41.88 355.14 37.53 372.51 33.19 389.88 37.53"/><polygon class="cls-2" points="381.2 46.22 370.34 39.71 363.83 28.85 374.69 35.36 381.2 46.22"/><polygon class="cls-2" points="381.2 28.85 374.69 39.71 363.83 46.22 370.34 35.36 381.2 28.85"/><rect class="cls-3" x="43.58" y="416.62" width="471.68" height="55.42" rx="24.91"/><path class="cls-4" d="M351.12,194.46a11.3,11.3,0,0,1-10.82,5.63" transform="translate(-20.25 -184.92)"/><path class="cls-5" d="M464.26,404.9l-30.77,6.48-17.78,3.74-29.6-83.79a9.86,9.86,0,0,1,10.51-13.08l16.85,2.08,2,.25.23,0,9.85,1.22,8.52,1.05,2.35.29,11.7,1.45a14.3,14.3,0,0,1,12.53,13.43l1.07,20.05.59,11Z" transform="translate(-20.25 -184.92)"/><path class="cls-6" d="M400.38,333.61l-15.12,17.57-16.95,19.71L365,374.76a9.45,9.45,0,0,1-14.33-12.33L364,346.88l3.45-4,18.57-21.58a9.45,9.45,0,0,1,14.33,12.33Z" transform="translate(-20.25 -184.92)"/><polygon class="cls-7" points="365.01 166.26 348.06 185.97 343.78 161.96 347.23 157.94 365.01 166.26"/><rect class="cls-7" x="395.25" y="123.41" width="18.9" height="14.55"/><path class="cls-6" d="M450,289.12a5.19,5.19,0,0,1-5.18,5.18H405.11a5.19,5.19,0,0,1,0-10.37h39.71A5.19,5.19,0,0,1,450,289.12Z" transform="translate(-20.25 -184.92)"/><path class="cls-7" d="M444.81,286l-.23,0H405.33l-.23,0a3.09,3.09,0,0,0-1.8.89,3.14,3.14,0,0,0,2,5.36h39.25a3.08,3.08,0,0,0,2-.91,3.15,3.15,0,0,0-1.8-5.34Z" transform="translate(-20.25 -184.92)"/><path class="cls-7" d="M444.58,276v19A19.62,19.62,0,0,1,425,314.59h0a19.41,19.41,0,0,1-9.44-2.43A19.6,19.6,0,0,1,405.33,295V276a17.87,17.87,0,0,1,.83-5.42h0a17.75,17.75,0,0,1,2.18-4.51,15.26,15.26,0,0,1,1.22-1.59,16.21,16.21,0,0,1,2.23-2.23,17.86,17.86,0,0,1,8.19-3.82h0a18.53,18.53,0,0,1,3.18-.28h3.53a18.46,18.46,0,0,1,3.5.34,17.86,17.86,0,0,1,6.34,2.62l.44.3h0c.38.27.75.55,1.1.85a10.69,10.69,0,0,1,1,.9.1.1,0,0,1,.06.05,3.85,3.85,0,0,1,.35.35,17.1,17.1,0,0,1,1.14,1.28A17.8,17.8,0,0,1,444.58,276Z" transform="translate(-20.25 -184.92)"/><path class="cls-8" d="M424,282.37l-2.62,10.36a3.45,3.45,0,0,0,3.34,4.3h0a3.46,3.46,0,0,0,3.35-4.3l-2.63-10.36A.74.74,0,0,0,424,282.37Z" transform="translate(-20.25 -184.92)"/><path class="cls-6" d="M444.58,275.61V294.3A19.13,19.13,0,0,1,434.4,311a19.88,19.88,0,0,1-9.45,2.37,19.41,19.41,0,0,1-19.62-19.07V275.61a17.06,17.06,0,0,1,3-9.72,17.74,17.74,0,0,1,3.45-3.74,18.07,18.07,0,0,1,11.4-4h3.53A18,18,0,0,1,437,261.32h0a17.39,17.39,0,0,1,3.65,3.36A17.17,17.17,0,0,1,444.58,275.61Z" transform="translate(-20.25 -184.92)"/><path class="cls-9" d="M450,289.12a5.19,5.19,0,0,1-5.18,5.18h-.22A19.13,19.13,0,0,1,434.4,311c2.89-4.48,3.81-10.31,3.41-16.7a61.09,61.09,0,0,0-1.61-10.37,110.5,110.5,0,0,0-10.12-25.8h.64A18,18,0,0,1,437,261.32h0a17.39,17.39,0,0,1,3.65,3.36,17.17,17.17,0,0,1,3.92,10.92v8.32h.23A5.19,5.19,0,0,1,450,289.12Z" transform="translate(-20.25 -184.92)"/><path class="cls-10" d="M425,279.52l-3.29,13.21a3,3,0,0,0,2.86,3.66h.86a3,3,0,0,0,2.86-3.66Z" transform="translate(-20.25 -184.92)"/><rect class="cls-11" x="395.22" y="94.6" width="3.53" height="6.84" rx="1.76"/><path class="cls-12" d="M413.44,277.41a3.92,3.92,0,0,1,5.2-1.91" transform="translate(-20.25 -184.92)"/><rect class="cls-11" x="430.91" y="279.52" width="3.53" height="6.84" rx="1.76" transform="translate(845.09 380.96) rotate(180)"/><path class="cls-12" d="M436.46,277.41a3.92,3.92,0,0,0-5.2-1.91" transform="translate(-20.25 -184.92)"/><path class="cls-13" d="M435.33,299.12a2.22,2.22,0,0,1,0,.45,2.32,2.32,0,0,1,0,.37,6,6,0,0,1-.08,1,6.79,6.79,0,0,1-1.48,3.31,1.81,1.81,0,0,1-.18.21,6.88,6.88,0,0,1-4.5,2.31l-.55.06-.65,0a7,7,0,0,1-6.56-4.5,8.25,8.25,0,0,1-.28-1L421,301c0-.15,0-.3-.06-.45Z" transform="translate(-20.25 -184.92)"/><path class="cls-14" d="M435.33,299.12a6.62,6.62,0,0,1,0,.77,1.13,1.13,0,0,1-1,1.1l-12,1.23a1.13,1.13,0,0,1-1.23-.87,4.94,4.94,0,0,1-.12-.77Z" transform="translate(-20.25 -184.92)"/><path class="cls-15" d="M433.63,304.42a6.88,6.88,0,0,1-4.5,2.31l-.55.06-.65,0a2,2,0,0,1,1.3-2l2.37-.85A2,2,0,0,1,433.63,304.42Z" transform="translate(-20.25 -184.92)"/><path class="cls-11" d="M444.18,263.05A1.06,1.06,0,0,1,443,264l-.89-.11-.93-.11-1.52-.18-.14,0-.25,0-.2,0,0-.35v-.1l.1-.84.1-.82.22-1.81a1.07,1.07,0,0,1,1.18-.93,1.11,1.11,0,0,1,.71.4,1.12,1.12,0,0,1,.22.78l-.22,1.81,1.81.22a1.07,1.07,0,0,1,.93,1.19Z" transform="translate(-20.25 -184.92)"/><g class="cls-16"><rect class="cls-7" x="387.14" y="101.02" width="12.44" height="7.66" rx="3.83"/><rect class="cls-7" x="409.82" y="101.02" width="12.44" height="7.66" rx="3.83"/></g><path class="cls-17" d="M412.79,268.39a11.65,11.65,0,0,1-4.45-2.33,9.75,9.75,0,0,1-1.4-1.4,9.6,9.6,0,0,1,4.79-2.76l.06.34Z" transform="translate(-20.25 -184.92)"/><path class="cls-11" d="M413.23,272.16a12.39,12.39,0,0,1-4.24,9.52,9.19,9.19,0,0,1-3.66,1.88l-.23.05h0l-1.31-8.05a13.54,13.54,0,0,1-.18-2.18,12.67,12.67,0,0,1,3.36-8.73,9.6,9.6,0,0,1,4.79-2.76l.06.34,1,6.15L413,270A13.84,13.84,0,0,1,413.23,272.16Z" transform="translate(-20.25 -184.92)"/><rect class="cls-11" x="405.09" y="270.35" width="3.9" height="19.32" rx="1.95" transform="translate(793.84 375.1) rotate(180)"/><path class="cls-11" d="M446.32,273.36a13.82,13.82,0,0,1-.18,2.21l-1.31,8.05h0l-.23-.06a9.25,9.25,0,0,1-3.67-1.89,12.35,12.35,0,0,1-4.23-9.51,13.82,13.82,0,0,1,.18-2.21l.38-2.31.87-5.39,0-.08,0-.27.55.14.51.17a9.5,9.5,0,0,1,2.88,1.65A12.41,12.41,0,0,1,446.32,273.36Z" transform="translate(-20.25 -184.92)"/><path class="cls-11" d="M444.81,272.3v15.42a1.85,1.85,0,0,1-.23.9,1.94,1.94,0,0,1-1.72,1.05,2.19,2.19,0,0,1-.36,0,2,2,0,0,1-1.59-1.92V272.3a2,2,0,0,1,1.95-1.95,1.91,1.91,0,0,1,.88.22l.1.05a1.68,1.68,0,0,1,.4.3A2,2,0,0,1,444.81,272.3Z" transform="translate(-20.25 -184.92)"/><path class="cls-11" d="M439.79,267.09v.55H417.87a12.4,12.4,0,0,1-5.4-1.23,12.11,12.11,0,0,1-2.91-1.94l-.07-.06a11.22,11.22,0,0,1-1-1.05,12.4,12.4,0,0,1-3.08-8.2v-.55h21.92A12.46,12.46,0,0,1,438.72,262a8.63,8.63,0,0,1,.39,1,0,0,0,0,1,0,0,.69.69,0,0,1,.05.13,3,3,0,0,1,.1.32A12.38,12.38,0,0,1,439.79,267.09Z" transform="translate(-20.25 -184.92)"/><rect class="cls-18" x="402.8" y="106.96" width="3.72" height="2.23" rx="1.12"/><path class="cls-6" d="M485.87,389.18a9.45,9.45,0,0,1-13-3.06l-3.35-5.42-5.21-8.42-2-3.16-6.77-10.94L444.29,340a9.46,9.46,0,0,1,7.46-14.41,9.33,9.33,0,0,1,2.74.23,9.46,9.46,0,0,1,5.87,4.23l18.13,29.29,1.88,3,.23.37,8.33,13.46A9.44,9.44,0,0,1,485.87,389.18Z" transform="translate(-20.25 -184.92)"/><path class="cls-7" d="M480.6,362.71l-11.09,18-5.21-8.42-2-3.16-6.77-10.94a57.48,57.48,0,0,1,6.18-.08c5.61.18,12.5.79,16.74,1.2l1.88,3Z" transform="translate(-20.25 -184.92)"/><path class="cls-5" d="M480.37,362.34l-16.07,9.94-2-3.16-6.77-10.94L444.29,340a9.46,9.46,0,0,1,7.46-14.41,9.33,9.33,0,0,1,2.74.23,9.46,9.46,0,0,1,5.87,4.23l18.13,29.29Z" transform="translate(-20.25 -184.92)"/><path class="cls-19" d="M427.41,256.63c3.3-.39,8.19,1.74,9.52,5.26" transform="translate(-20.25 -184.92)"/><path class="cls-20" d="M464.3,372.28l-2-3.16,1.92,35.78-30.77,6.48-7.08-80.19-.74-8.31-.09-1.05,8.52,1.05,2.35.29,11.7,1.45a14.33,14.33,0,0,1,3.6.93,9.33,9.33,0,0,1,2.74.23,9.46,9.46,0,0,1,5.87,4.23l18.13,29.29,1.88,3Z" transform="translate(-20.25 -184.92)"/><path class="cls-6" d="M436.45,323.17a9.39,9.39,0,0,1-9.27,8.05l-.77,0-.23,0-4.44-.49a9.37,9.37,0,0,1-8.28-10.31.06.06,0,0,1,0,0l2,.25.23,0a7.92,7.92,0,0,1,7.69-6h3.06a7.91,7.91,0,0,1,7.92,7.92v.37h-.3Z" transform="translate(-20.25 -184.92)"/><path class="cls-6" d="M490.28,382.42a9.46,9.46,0,0,1-7.86,9.3l-32,5.48a9.45,9.45,0,0,1-3.19-18.63l3.81-.65,28.2-4.83a9.46,9.46,0,0,1,10.91,7.72A9.82,9.82,0,0,1,490.28,382.42Z" transform="translate(-20.25 -184.92)"/><path class="cls-21" d="M450.85,602.13h27a0,0,0,0,1,0,0v11.29a7.41,7.41,0,0,1-7.41,7.41H460.6a9.75,9.75,0,0,1-9.75-9.75v-9A0,0,0,0,1,450.85,602.13Z" transform="translate(847.42 1079.91) rotate(-174.47)"/><path class="cls-21" d="M450.06,618.92l-1.44,14.93a3.85,3.85,0,0,0,3.47,4.21l46.2,4.47a6.58,6.58,0,0,0,6.35-3.26,6.33,6.33,0,0,0,.87-2.69,24.22,24.22,0,0,0-4.63-16.75c-.25-.34-.51-.67-.78-1A24.4,24.4,0,0,0,490,611.59c-.65-.25-1.32-.48-2-.67a25.38,25.38,0,0,0-4.32-.82l-20.53-2A12,12,0,0,0,450.06,618.92Z" transform="translate(-20.25 -184.92)"/><path class="cls-22" d="M470.61,612.14l27,9.09a2.71,2.71,0,0,0,3.3-1.4c-.25-.34-.51-.67-.78-1A24.4,24.4,0,0,0,490,611.59l-2-.67a25.38,25.38,0,0,0-4.32-.82l-14.77-1.43,0,.05A2.7,2.7,0,0,0,470.61,612.14Z" transform="translate(-20.25 -184.92)"/><path class="cls-23" d="M477.55,630.22a16.5,16.5,0,0,0,.65,6.49,16.69,16.69,0,0,0,1.88,4.06l18.21,1.76a6.58,6.58,0,0,0,6.35-3.26,6.33,6.33,0,0,0,.87-2.69,24.17,24.17,0,0,0-5.41-17.75,23.84,23.84,0,0,0-3.54-3.49l-.84-.09A16.66,16.66,0,0,0,477.55,630.22Z" transform="translate(-20.25 -184.92)"/><path class="cls-24" d="M448.62,633.85a3.85,3.85,0,0,0,3.47,4.21l46.2,4.47a6.58,6.58,0,0,0,6.35-3.26Z" transform="translate(-20.25 -184.92)"/><path class="cls-23" d="M479.14,617.21a1.09,1.09,0,0,0,1.08-.6c1.71-3.46,7.06-5.26,10.55-4.5a1.07,1.07,0,0,0,1.29-.82,1.09,1.09,0,0,0-.83-1.29c-4.31-1-10.78,1.27-13,5.65a1.07,1.07,0,0,0,.49,1.45A1,1,0,0,0,479.14,617.21Z" transform="translate(-20.25 -184.92)"/><rect class="cls-7" x="452.55" y="588.87" width="19.41" height="27.95" transform="translate(844.06 1062.49) rotate(-174.47)"/><rect class="cls-22" x="468.6" y="600.79" width="6.72" height="10.69" rx="2.94" transform="translate(863.1 1069.99) rotate(-174.47)"/><path class="cls-21" d="M450.86,601.83h20.76a0,0,0,0,1,0,0v11.29a7.41,7.41,0,0,1-7.41,7.41h-3.61a9.75,9.75,0,0,1-9.75-9.75v-9A0,0,0,0,1,450.86,601.83Z" transform="translate(841.24 1079.01) rotate(-174.47)"/><path class="cls-23" d="M471.2,615.11a1.09,1.09,0,0,0,1.08-.6c1.71-3.46,7.06-5.26,10.55-4.49a1.08,1.08,0,0,0,.46-2.12c-4.31-.95-10.78,1.27-13,5.65a1.07,1.07,0,0,0,.49,1.45A1,1,0,0,0,471.2,615.11Z" transform="translate(-20.25 -184.92)"/><path class="cls-25" d="M463.72,531.89a19.2,19.2,0,0,1-21.15-17l-6.92-63.94-2.42-22.39a19.2,19.2,0,0,1,17-21.15,18.41,18.41,0,0,1,2.09-.11,18.64,18.64,0,0,1,4.8.62,19.16,19.16,0,0,1,14.26,16.51l1.06,9.84,8.28,76.49A19.2,19.2,0,0,1,463.72,531.89Z" transform="translate(-20.25 -184.92)"/><path class="cls-25" d="M462.69,498.85h0a19.2,19.2,0,0,1,19.2,19.2v81a0,0,0,0,1,0,0H443.49a0,0,0,0,1,0,0V518A19.2,19.2,0,0,1,462.69,498.85Z" transform="translate(-34.33 -172.73) rotate(-1.49)"/><path class="cls-25" d="M469.79,434.15a22.3,22.3,0,0,1-17,13.85l-17.12,2.93-1.75.3a16.5,16.5,0,0,1-19-13.48L412,420.81l-.94-5.48a2.1,2.1,0,0,1,1.72-2.43l44.15-7.55,5.26-.9a5.73,5.73,0,0,1,6.63,4.69l.27,1.59L471,422l0,.23A22.24,22.24,0,0,1,469.79,434.15Z" transform="translate(-20.25 -184.92)"/><path class="cls-21" d="M410.24,598.37h9.85a7.41,7.41,0,0,1,7.41,7.41v11.29a0,0,0,0,1,0,0h-27a0,0,0,0,1,0,0v-9A9.75,9.75,0,0,1,410.24,598.37Z" transform="translate(-198.57 -12.95) rotate(-19.4)"/><path class="cls-21" d="M429.65,611.52l5,14.14a3.86,3.86,0,0,1-2.36,4.93L388.49,646a6.6,6.6,0,0,1-6.95-1.64,6.5,6.5,0,0,1-1.49-2.4,24.21,24.21,0,0,1,.49-17.38c.15-.39.33-.77.51-1.16a24.31,24.31,0,0,1,8-9.44c.57-.4,1.17-.78,1.78-1.13a25.2,25.2,0,0,1,4-1.83l19.44-6.84A12,12,0,0,1,429.65,611.52Z" transform="translate(-20.25 -184.92)"/><path class="cls-22" d="M408.08,609.86l-24,15.29a2.7,2.7,0,0,1-3.53-.57c.15-.39.33-.77.51-1.16a24.31,24.31,0,0,1,8-9.44l1.78-1.13a25.2,25.2,0,0,1,4-1.83l14-4.93,0,0A2.7,2.7,0,0,1,408.08,609.86Z" transform="translate(-20.25 -184.92)"/><path class="cls-23" d="M405.68,629.08a16.52,16.52,0,0,1,.06,10.85L388.49,646a6.6,6.6,0,0,1-6.95-1.64,6.5,6.5,0,0,1-1.49-2.4,24.22,24.22,0,0,1,3.6-22.78l.79-.28A16.66,16.66,0,0,1,405.68,629.08Z" transform="translate(-20.25 -184.92)"/><path class="cls-24" d="M434.63,625.66a3.86,3.86,0,0,1-2.36,4.93L388.49,646a6.6,6.6,0,0,1-6.95-1.64Z" transform="translate(-20.25 -184.92)"/><path class="cls-23" d="M401,616.83a1.09,1.09,0,0,1-1.19-.33c-2.49-2.94-8.12-3.41-11.32-1.83a1.08,1.08,0,0,1-1-1.94c4-2,10.78-1.36,13.94,2.38a1.08,1.08,0,0,1-.13,1.52A1.17,1.17,0,0,1,401,616.83Z" transform="translate(-20.25 -184.92)"/><rect class="cls-7" x="404.26" y="584.86" width="19.41" height="27.95" transform="translate(-195.62 -13.47) rotate(-19.4)"/><rect class="cls-22" x="401.97" y="599.01" width="6.72" height="10.69" rx="2.94" transform="translate(-197.94 -16.02) rotate(-19.4)"/><path class="cls-21" d="M416.31,597.33h3.61a7.41,7.41,0,0,1,7.41,7.41V616a0,0,0,0,1,0,0H406.56a0,0,0,0,1,0,0v-9A9.75,9.75,0,0,1,416.31,597.33Z" transform="translate(-198.05 -12.03) rotate(-19.4)"/><path class="cls-23" d="M408.21,612.89a1.09,1.09,0,0,1-1.18-.32c-2.49-3-8.12-3.42-11.32-1.84a1.08,1.08,0,0,1-1.45-.5,1.06,1.06,0,0,1,.49-1.44c4-2,10.77-1.36,13.93,2.38a1.07,1.07,0,0,1-.13,1.52A1.17,1.17,0,0,1,408.21,612.89Z" transform="translate(-20.25 -184.92)"/><path class="cls-26" d="M472.46,434.25c-.86,0-1.75-.06-2.66-.1h0c-10.33-.47-11.36-12.8-12.65-26.25-.08-.84-.16-1.7-.25-2.55l5.26-.9a5.73,5.73,0,0,1,6.63,4.69L471,422a19.26,19.26,0,0,1,.42,2.43Z" transform="translate(-20.25 -184.92)"/><rect class="cls-25" x="394.25" y="414.12" width="38.39" height="124.75" rx="19.2" transform="translate(86.75 -259.86) rotate(11.88)"/><path class="cls-26" d="M433.42,412.55h10.23a0,0,0,0,1,0,0V432a10.23,10.23,0,0,1-10.23,10.23h0a0,0,0,0,1,0,0v-29.7A0,0,0,0,1,433.42,412.55Z" transform="translate(-72.86 -123.25) rotate(-7.59)"/><path class="cls-25" d="M407,503.32h0a19.2,19.2,0,0,1,19.2,19.2v73.71a0,0,0,0,1,0,0H387.79a0,0,0,0,1,0,0V522.52A19.2,19.2,0,0,1,407,503.32Z" transform="translate(-77.04 -137.94) rotate(-6.18)"/><path class="cls-27" d="M469.05,410.73l-25.78,4.55-.63.11-11.09,2-2.91.51L412,420.81l-.94-5.48a2.1,2.1,0,0,1,1.72-2.43l14.89-2.55,2.92-.5L441.64,408l.64-.11,14.61-2.5,5.26-.9a5.73,5.73,0,0,1,6.63,4.69Z" transform="translate(-20.25 -184.92)"/><rect class="cls-28" x="415.25" y="411.52" width="3.56" height="9.1" transform="translate(-71.55 -126.19) rotate(-7.59)"/><path class="cls-5" d="M401.28,332.55l-21.13,24.57L365.82,344.8,387,320.23c2.9-3.38,8.46-3.35,12.42,0a10.3,10.3,0,0,1,3.53,6.14A7.53,7.53,0,0,1,401.28,332.55Z" transform="translate(-20.25 -184.92)"/><rect class="cls-29" x="202.46" y="392.95" width="58.9" height="29.45"/><path class="cls-30" d="M409.22,392V567.48a10.41,10.41,0,0,1-10.4,10.4H105.5a10.41,10.41,0,0,1-10.41-10.4V392a10.41,10.41,0,0,1,10.41-10.39H398.82A10.41,10.41,0,0,1,409.22,392Z" transform="translate(-20.25 -184.92)"/><path class="cls-31" d="M398.81,583.33H105.5a15.87,15.87,0,0,1-15.85-15.85V392a15.87,15.87,0,0,1,15.85-15.85H398.81A15.87,15.87,0,0,1,414.66,392V567.48A15.87,15.87,0,0,1,398.81,583.33ZM105.5,387a5,5,0,0,0-5,4.95V567.48a5,5,0,0,0,5,4.95H398.81a5,5,0,0,0,4.95-4.95V392a5,5,0,0,0-4.95-4.95Z" transform="translate(-20.25 -184.92)"/><path class="cls-31" d="M191,422.4h81.79a18,18,0,0,1,18,18V442a0,0,0,0,1,0,0H173a0,0,0,0,1,0,0V440.4A18,18,0,0,1,191,422.4Z"/><polygon class="cls-32" points="207.89 252.58 207.89 311.47 158.81 331.11 158.81 272.21 207.89 252.58"/><polygon class="cls-33" points="207.89 252.58 158.81 272.21 109.74 252.58 158.81 232.95 207.89 252.58"/><polygon class="cls-34" points="158.81 272.21 158.81 331.11 109.74 311.47 109.74 252.58 158.81 272.21"/><path class="cls-31" d="M409.21,548.43v19.05a10.4,10.4,0,0,1-10.4,10.4H105.5a10.4,10.4,0,0,1-10.4-10.4V548.43Z" transform="translate(-20.25 -184.92)"/><path class="cls-35" d="M203.08,499.35" transform="translate(-20.25 -184.92)"/><rect class="cls-2" x="248.19" y="242.45" width="109.97" height="17.35" rx="7.96"/><rect class="cls-2" x="248.19" y="273.35" width="109.97" height="17.35" rx="7.96"/><rect class="cls-2" x="248.19" y="304.26" width="109.97" height="17.35" rx="7.96"/><rect class="cls-7" x="367.35" y="340.16" width="18.9" height="56.88" rx="9.45" transform="translate(725.15 -193.12) rotate(90)"/><path class="cls-7" d="M400.11,365.2h8.3a12.28,12.28,0,0,1,12.28,12.28v0a6.1,6.1,0,0,1-6.1,6.1H393.93a6.1,6.1,0,0,1-6.1-6.1v0A12.28,12.28,0,0,1,400.11,365.2Z" transform="translate(642.39 -297.19) rotate(75.16)"/><rect class="cls-6" x="367.81" y="339.69" width="17.98" height="56.88" rx="8.99" transform="translate(724.68 -193.6) rotate(90)"/><path class="cls-6" d="M398,385.37l-5.29-19a5.79,5.79,0,0,1,4.33-7.1h0c6.56-1.65,13.28,2.07,15,8.3l2.12,7.63a11.64,11.64,0,0,1-8.72,14.29h0A6.14,6.14,0,0,1,398,385.37Z" transform="translate(-20.25 -184.92)"/><path class="cls-7" d="M454,389.77a12.23,12.23,0,0,1-3.59,8.68l-5.87,5.86a12.28,12.28,0,0,1-17.37,0,6,6,0,0,1-1.77-4.07,1.93,1.93,0,0,1,0-.24,6.07,6.07,0,0,1,1.78-4.31l14.61-14.61a6.11,6.11,0,0,1,8.63,0,12.3,12.3,0,0,1,3.59,8.69Z" transform="translate(-20.25 -184.92)"/><path class="cls-6" d="M452.75,388a12.41,12.41,0,0,1-3.48,8.68l-5.68,5.86a11.61,11.61,0,0,1-16.81,0,6,6,0,0,1-1.38-2.27,1.93,1.93,0,0,1,0-.24,6.18,6.18,0,0,1,1.72-4.31l14.14-14.61a5.78,5.78,0,0,1,8.35,0,12.26,12.26,0,0,1,3.06,5.46A11.44,11.44,0,0,1,452.75,388Z" transform="translate(-20.25 -184.92)"/><path class="cls-7" d="M452.56,387.56a2.66,2.66,0,0,0-3.28,1.85l-2.43,8.7a2.67,2.67,0,0,0,1.85,3.29h0a5.35,5.35,0,0,0,6.61-3.73l1-3.49A5.37,5.37,0,0,0,452.56,387.56Z" transform="translate(-20.25 -184.92)"/><path class="cls-6" d="M451.93,387.84a2.12,2.12,0,0,0-2.76,1.55l-1.83,7.67a2.56,2.56,0,0,0,1.68,3h0a4.28,4.28,0,0,0,5.55-3.13l.73-3.08A5.14,5.14,0,0,0,451.93,387.84Z" transform="translate(-20.25 -184.92)"/><rect class="cls-28" x="450.67" y="405.4" width="3.56" height="9.1" transform="translate(-70.43 -121.56) rotate(-7.59)"/><polygon class="cls-28" points="422.39 230.47 411.3 232.44 410.3 224.93 421.39 223.04 422.39 230.47"/><rect class="cls-28" x="442.84" y="593.01" width="42.46" height="6.29" transform="translate(-35.56 -172.68) rotate(-1.49)"/><rect class="cls-28" x="390.23" y="589.97" width="42.46" height="6.29" transform="translate(-81.67 -137.21) rotate(-6.18)"/></svg>